<?xml version="1.0" encoding="UTF-8" standalone="no"?>
<!DOCTYPE svg PUBLIC "-//W3C//DTD SVG 1.1//EN"
 "http://www.w3.org/Graphics/SVG/1.1/DTD/svg11.dtd">
<!-- Generated by graphviz version 2.40.1 (20161225.0304)
 -->
<!-- Title: dependencies Pages: 1 -->
<svg width="3365pt" height="284pt"
 viewBox="0.00 0.00 3365.00 284.00" xmlns="http://www.w3.org/2000/svg" xmlns:xlink="http://www.w3.org/1999/xlink">
<g id="graph0" class="graph" transform="scale(1 1) rotate(0) translate(4 280)">
<title>dependencies</title>
<polygon fill="#ffffff" stroke="transparent" points="-4,4 -4,-280 3361,-280 3361,4 -4,4"/>
<text text-anchor="start" x="1657.5091" y="-42.4" font-family="sans-serif" font-weight="bold" font-size="14.00" fill="#000000">Legend</text>
<polygon fill="#ffffb3" stroke="transparent" points="1444.5,-10 1444.5,-30 1464.5,-30 1464.5,-10 1444.5,-10"/>
<text text-anchor="start" x="1468.129" y="-15.4" font-family="sans-serif" font-size="14.00" fill="#000000"> &#160;Declarations</text>
<polygon fill="#8dd3c7" stroke="transparent" points="1557.5,-10 1557.5,-30 1577.5,-30 1577.5,-10 1557.5,-10"/>
<text text-anchor="start" x="1581.2251" y="-15.4" font-family="sans-serif" font-size="14.00" fill="#000000"> &#160;Module</text>
<polygon fill="#80b1d3" stroke="transparent" points="1643.5,-10 1643.5,-30 1663.5,-30 1663.5,-10 1643.5,-10"/>
<text text-anchor="start" x="1667.2812" y="-15.4" font-family="sans-serif" font-size="14.00" fill="#000000"> &#160;Bootstrap</text>
<polygon fill="#fdb462" stroke="transparent" points="1740.5,-10 1740.5,-30 1760.5,-30 1760.5,-10 1740.5,-10"/>
<text text-anchor="start" x="1764.1732" y="-15.4" font-family="sans-serif" font-size="14.00" fill="#000000"> &#160;Providers</text>
<polygon fill="#fb8072" stroke="transparent" points="1836.5,-10 1836.5,-30 1856.5,-30 1856.5,-10 1836.5,-10"/>
<text text-anchor="start" x="1860.2258" y="-15.4" font-family="sans-serif" font-size="14.00" fill="#000000"> &#160;Exports</text>
<g id="clust1" class="cluster">
<title>cluster_AdminModule</title>
<polygon fill="none" stroke="#000000" stroke-dasharray="1,5" points="8,-70 8,-268 3349,-268 3349,-70 8,-70"/>
</g>
<g id="clust2" class="cluster">
<title>cluster_AdminModule_declarations</title>
<polygon fill="none" stroke="#000000" points="468,-78 468,-130 3341,-130 3341,-78 468,-78"/>
</g>
<g id="clust20" class="cluster">
<title>cluster_AdminModule_imports</title>
<polygon fill="none" stroke="#000000" points="16,-78 16,-130 460,-130 460,-78 16,-78"/>
</g>
<g id="clust21" class="cluster">
<title>cluster_AdminModule_exports</title>
<polygon fill="none" stroke="#000000" points="1627,-208 1627,-260 1767,-260 1767,-208 1627,-208"/>
</g>
<!-- AdminComponent -->
<g id="node1" class="node">
<title>AdminComponent</title>
<polygon fill="#ffffb3" stroke="#000000" points="3333.2204,-122 3212.7796,-122 3212.7796,-86 3333.2204,-86 3333.2204,-122"/>
<text text-anchor="middle" x="3273" y="-99.8" font-family="Times,serif" font-size="14.00" fill="#000000">AdminComponent</text>
</g>
<!-- AdminModule -->
<g id="node18" class="node">
<title>AdminModule</title>
<polygon fill="#8dd3c7" stroke="#000000" points="1746.4386,-187 1743.4386,-191 1722.4386,-191 1719.4386,-187 1647.5614,-187 1647.5614,-151 1746.4386,-151 1746.4386,-187"/>
<text text-anchor="middle" x="1697" y="-164.8" font-family="Times,serif" font-size="14.00" fill="#000000">AdminModule</text>
</g>
<!-- AdminComponent&#45;&gt;AdminModule -->
<g id="edge1" class="edge">
<title>AdminComponent&#45;&gt;AdminModule</title>
<path fill="none" stroke="#000000" d="M3273,-122.1532C3273,-145.7566 3273,-184 3273,-184 3273,-184 1756.3312,-184 1756.3312,-184"/>
<polygon fill="#000000" stroke="#000000" points="1756.3313,-180.5001 1746.3312,-184 1756.3312,-187.5001 1756.3313,-180.5001"/>
</g>
<!-- ConferencerCardComponent -->
<g id="node2" class="node">
<title>ConferencerCardComponent</title>
<polygon fill="#ffffb3" stroke="#000000" points="3194.7212,-122 3017.2788,-122 3017.2788,-86 3194.7212,-86 3194.7212,-122"/>
<text text-anchor="middle" x="3106" y="-99.8" font-family="Times,serif" font-size="14.00" fill="#000000">ConferencerCardComponent</text>
</g>
<!-- ConferencerCardComponent&#45;&gt;AdminModule -->
<g id="edge2" class="edge">
<title>ConferencerCardComponent&#45;&gt;AdminModule</title>
<path fill="none" stroke="#000000" d="M3106,-122.0109C3106,-144.4852 3106,-180 3106,-180 3106,-180 1756.3209,-180 1756.3209,-180"/>
<polygon fill="#000000" stroke="#000000" points="1756.3209,-176.5001 1746.3209,-180 1756.3209,-183.5001 1756.3209,-176.5001"/>
</g>
<!-- ConferencerComponent -->
<g id="node3" class="node">
<title>ConferencerComponent</title>
<polygon fill="#ffffb3" stroke="#000000" points="2999.01,-122 2848.99,-122 2848.99,-86 2999.01,-86 2999.01,-122"/>
<text text-anchor="middle" x="2924" y="-99.8" font-family="Times,serif" font-size="14.00" fill="#000000">ConferencerComponent</text>
</g>
<!-- ConferencerComponent&#45;&gt;AdminModule -->
<g id="edge3" class="edge">
<title>ConferencerComponent&#45;&gt;AdminModule</title>
<path fill="none" stroke="#000000" d="M2924,-122.0449C2924,-143.6623 2924,-177 2924,-177 2924,-177 1756.2376,-177 1756.2376,-177"/>
<polygon fill="#000000" stroke="#000000" points="1756.2377,-173.5001 1746.2376,-177 1756.2376,-180.5001 1756.2377,-173.5001"/>
</g>
<!-- CoordinatorComponent -->
<g id="node4" class="node">
<title>CoordinatorComponent</title>
<polygon fill="#ffffb3" stroke="#000000" points="2830.486,-122 2681.514,-122 2681.514,-86 2830.486,-86 2830.486,-122"/>
<text text-anchor="middle" x="2756" y="-99.8" font-family="Times,serif" font-size="14.00" fill="#000000">CoordinatorComponent</text>
</g>
<!-- CoordinatorComponent&#45;&gt;AdminModule -->
<g id="edge4" class="edge">
<title>CoordinatorComponent&#45;&gt;AdminModule</title>
<path fill="none" stroke="#000000" d="M2756,-122.1289C2756,-142.5724 2756,-173 2756,-173 2756,-173 1756.3051,-173 1756.3051,-173"/>
<polygon fill="#000000" stroke="#000000" points="1756.3051,-169.5001 1746.3051,-173 1756.305,-176.5001 1756.3051,-169.5001"/>
</g>
<!-- NewsComponent -->
<g id="node5" class="node">
<title>NewsComponent</title>
<polygon fill="#ffffb3" stroke="#000000" points="2663.705,-122 2550.295,-122 2550.295,-86 2663.705,-86 2663.705,-122"/>
<text text-anchor="middle" x="2607" y="-99.8" font-family="Times,serif" font-size="14.00" fill="#000000">NewsComponent</text>
</g>
<!-- NewsComponent&#45;&gt;AdminModule -->
<g id="edge5" class="edge">
<title>NewsComponent&#45;&gt;AdminModule</title>
<path fill="none" stroke="#000000" d="M2607,-122.1061C2607,-141.3391 2607,-169 2607,-169 2607,-169 1756.2482,-169 1756.2482,-169"/>
<polygon fill="#000000" stroke="#000000" points="1756.2482,-165.5001 1746.2482,-169 1756.2482,-172.5001 1756.2482,-165.5001"/>
</g>
<!-- NotFoundComponent -->
<g id="node6" class="node">
<title>NotFoundComponent</title>
<polygon fill="#ffffb3" stroke="#000000" points="2532.1122,-122 2393.8878,-122 2393.8878,-86 2532.1122,-86 2532.1122,-122"/>
<text text-anchor="middle" x="2463" y="-99.8" font-family="Times,serif" font-size="14.00" fill="#000000">NotFoundComponent</text>
</g>
<!-- NotFoundComponent&#45;&gt;AdminModule -->
<g id="edge6" class="edge">
<title>NotFoundComponent&#45;&gt;AdminModule</title>
<path fill="none" stroke="#000000" d="M2463,-122.2667C2463,-140.5552 2463,-166 2463,-166 2463,-166 1756.3752,-166 1756.3752,-166"/>
<polygon fill="#000000" stroke="#000000" points="1756.3753,-162.5001 1746.3752,-166 1756.3752,-169.5001 1756.3753,-162.5001"/>
</g>
<!-- ScheduleCardComponent -->
<g id="node7" class="node">
<title>ScheduleCardComponent</title>
<polygon fill="#ffffb3" stroke="#000000" points="2375.8613,-122 2216.1387,-122 2216.1387,-86 2375.8613,-86 2375.8613,-122"/>
<text text-anchor="middle" x="2296" y="-99.8" font-family="Times,serif" font-size="14.00" fill="#000000">ScheduleCardComponent</text>
</g>
<!-- ScheduleCardComponent&#45;&gt;AdminModule -->
<g id="edge7" class="edge">
<title>ScheduleCardComponent&#45;&gt;AdminModule</title>
<path fill="none" stroke="#000000" d="M2296,-122.0336C2296,-139.0597 2296,-162 2296,-162 2296,-162 1756.2732,-162 1756.2732,-162"/>
<polygon fill="#000000" stroke="#000000" points="1756.2732,-158.5001 1746.2732,-162 1756.2732,-165.5001 1756.2732,-158.5001"/>
</g>
<!-- SchedulesComponent -->
<g id="node8" class="node">
<title>SchedulesComponent</title>
<polygon fill="#ffffb3" stroke="#000000" points="2198.094,-122 2059.906,-122 2059.906,-86 2198.094,-86 2198.094,-122"/>
<text text-anchor="middle" x="2129" y="-99.8" font-family="Times,serif" font-size="14.00" fill="#000000">SchedulesComponent</text>
</g>
<!-- SchedulesComponent&#45;&gt;AdminModule -->
<g id="edge8" class="edge">
<title>SchedulesComponent&#45;&gt;AdminModule</title>
<path fill="none" stroke="#000000" d="M2129,-122.0091C2129,-138.0494 2129,-159 2129,-159 2129,-159 1756.5559,-159 1756.5559,-159"/>
<polygon fill="#000000" stroke="#000000" points="1756.5559,-155.5001 1746.5559,-159 1756.5559,-162.5001 1756.5559,-155.5001"/>
</g>
<!-- SubscribedComponent -->
<g id="node9" class="node">
<title>SubscribedComponent</title>
<polygon fill="#ffffb3" stroke="#000000" points="2041.5407,-122 1898.4593,-122 1898.4593,-86 2041.5407,-86 2041.5407,-122"/>
<text text-anchor="middle" x="1970" y="-99.8" font-family="Times,serif" font-size="14.00" fill="#000000">SubscribedComponent</text>
</g>
<!-- SubscribedComponent&#45;&gt;AdminModule -->
<g id="edge9" class="edge">
<title>SubscribedComponent&#45;&gt;AdminModule</title>
<path fill="none" stroke="#000000" d="M1970,-122.1243C1970,-136.7832 1970,-155 1970,-155 1970,-155 1756.4382,-155 1756.4382,-155"/>
<polygon fill="#000000" stroke="#000000" points="1756.4383,-151.5001 1746.4382,-155 1756.4382,-158.5001 1756.4383,-151.5001"/>
</g>
<!-- SubscribersCardComponent -->
<g id="node10" class="node">
<title>SubscribersCardComponent</title>
<polygon fill="#ffffb3" stroke="#000000" points="1879.8571,-122 1706.1429,-122 1706.1429,-86 1879.8571,-86 1879.8571,-122"/>
<text text-anchor="middle" x="1793" y="-99.8" font-family="Times,serif" font-size="14.00" fill="#000000">SubscribersCardComponent</text>
</g>
<!-- SubscribersCardComponent&#45;&gt;AdminModule -->
<g id="edge10" class="edge">
<title>SubscribersCardComponent&#45;&gt;AdminModule</title>
<path fill="none" stroke="#000000" d="M1726.1452,-122.1061C1726.1452,-122.1061 1726.1452,-140.991 1726.1452,-140.991"/>
<polygon fill="#000000" stroke="#000000" points="1722.6452,-140.9909 1726.1452,-150.991 1729.6452,-140.991 1722.6452,-140.9909"/>
</g>
<!-- SubscribersDataComponent -->
<g id="node11" class="node">
<title>SubscribersDataComponent</title>
<polygon fill="#ffffb3" stroke="#000000" points="1688.5716,-122 1515.4284,-122 1515.4284,-86 1688.5716,-86 1688.5716,-122"/>
<text text-anchor="middle" x="1602" y="-99.8" font-family="Times,serif" font-size="14.00" fill="#000000">SubscribersDataComponent</text>
</g>
<!-- SubscribersDataComponent&#45;&gt;AdminModule -->
<g id="edge11" class="edge">
<title>SubscribersDataComponent&#45;&gt;AdminModule</title>
<path fill="none" stroke="#000000" d="M1668.1585,-122.1061C1668.1585,-122.1061 1668.1585,-140.991 1668.1585,-140.991"/>
<polygon fill="#000000" stroke="#000000" points="1664.6586,-140.9909 1668.1585,-150.991 1671.6586,-140.991 1664.6586,-140.9909"/>
</g>
<!-- SubscribersMetricsComponent -->
<g id="node12" class="node">
<title>SubscribersMetricsComponent</title>
<polygon fill="#ffffb3" stroke="#000000" points="1497.9058,-122 1308.0942,-122 1308.0942,-86 1497.9058,-86 1497.9058,-122"/>
<text text-anchor="middle" x="1403" y="-99.8" font-family="Times,serif" font-size="14.00" fill="#000000">SubscribersMetricsComponent</text>
</g>
<!-- SubscribersMetricsComponent&#45;&gt;AdminModule -->
<g id="edge12" class="edge">
<title>SubscribersMetricsComponent&#45;&gt;AdminModule</title>
<path fill="none" stroke="#000000" d="M1403,-122.1243C1403,-136.7832 1403,-155 1403,-155 1403,-155 1637.4594,-155 1637.4594,-155"/>
<polygon fill="#000000" stroke="#000000" points="1637.4594,-158.5001 1647.4594,-155 1637.4593,-151.5001 1637.4594,-158.5001"/>
</g>
<!-- VincularTrabalhosComponent -->
<g id="node13" class="node">
<title>VincularTrabalhosComponent</title>
<polygon fill="#ffffb3" stroke="#000000" points="1290.2878,-122 1103.7122,-122 1103.7122,-86 1290.2878,-86 1290.2878,-122"/>
<text text-anchor="middle" x="1197" y="-99.8" font-family="Times,serif" font-size="14.00" fill="#000000">VincularTrabalhosComponent</text>
</g>
<!-- VincularTrabalhosComponent&#45;&gt;AdminModule -->
<g id="edge13" class="edge">
<title>VincularTrabalhosComponent&#45;&gt;AdminModule</title>
<path fill="none" stroke="#000000" d="M1197,-122.0091C1197,-138.0494 1197,-159 1197,-159 1197,-159 1637.6897,-159 1637.6897,-159"/>
<polygon fill="#000000" stroke="#000000" points="1637.6897,-162.5001 1647.6897,-159 1637.6897,-155.5001 1637.6897,-162.5001"/>
</g>
<!-- WorkCardComponent -->
<g id="node14" class="node">
<title>WorkCardComponent</title>
<polygon fill="#ffffb3" stroke="#000000" points="1086.42,-122 945.58,-122 945.58,-86 1086.42,-86 1086.42,-122"/>
<text text-anchor="middle" x="1016" y="-99.8" font-family="Times,serif" font-size="14.00" fill="#000000">WorkCardComponent</text>
</g>
<!-- WorkCardComponent&#45;&gt;AdminModule -->
<g id="edge14" class="edge">
<title>WorkCardComponent&#45;&gt;AdminModule</title>
<path fill="none" stroke="#000000" d="M1016,-122.0336C1016,-139.0597 1016,-162 1016,-162 1016,-162 1637.7502,-162 1637.7502,-162"/>
<polygon fill="#000000" stroke="#000000" points="1637.7502,-165.5001 1647.7502,-162 1637.7502,-158.5001 1637.7502,-165.5001"/>
</g>
<!-- WorkContentComponent -->
<g id="node15" class="node">
<title>WorkContentComponent</title>
<polygon fill="#ffffb3" stroke="#000000" points="927.5407,-122 770.4593,-122 770.4593,-86 927.5407,-86 927.5407,-122"/>
<text text-anchor="middle" x="849" y="-99.8" font-family="Times,serif" font-size="14.00" fill="#000000">WorkContentComponent</text>
</g>
<!-- WorkContentComponent&#45;&gt;AdminModule -->
<g id="edge15" class="edge">
<title>WorkContentComponent&#45;&gt;AdminModule</title>
<path fill="none" stroke="#000000" d="M849,-122.2667C849,-140.5552 849,-166 849,-166 849,-166 1637.7426,-166 1637.7426,-166"/>
<polygon fill="#000000" stroke="#000000" points="1637.7426,-169.5001 1647.7426,-166 1637.7425,-162.5001 1637.7426,-169.5001"/>
</g>
<!-- WorkDataComponent -->
<g id="node16" class="node">
<title>WorkDataComponent</title>
<polygon fill="#ffffb3" stroke="#000000" points="751.6345,-122 612.3655,-122 612.3655,-86 751.6345,-86 751.6345,-122"/>
<text text-anchor="middle" x="682" y="-99.8" font-family="Times,serif" font-size="14.00" fill="#000000">WorkDataComponent</text>
</g>
<!-- WorkDataComponent&#45;&gt;AdminModule -->
<g id="edge16" class="edge">
<title>WorkDataComponent&#45;&gt;AdminModule</title>
<path fill="none" stroke="#000000" d="M682,-122.1061C682,-141.3391 682,-169 682,-169 682,-169 1637.7014,-169 1637.7014,-169"/>
<polygon fill="#000000" stroke="#000000" points="1637.7015,-172.5001 1647.7014,-169 1637.7014,-165.5001 1637.7015,-172.5001"/>
</g>
<!-- WorksComponent -->
<g id="node17" class="node">
<title>WorksComponent</title>
<polygon fill="#ffffb3" stroke="#000000" points="594.1527,-122 475.8473,-122 475.8473,-86 594.1527,-86 594.1527,-122"/>
<text text-anchor="middle" x="535" y="-99.8" font-family="Times,serif" font-size="14.00" fill="#000000">WorksComponent</text>
</g>
<!-- WorksComponent&#45;&gt;AdminModule -->
<g id="edge17" class="edge">
<title>WorksComponent&#45;&gt;AdminModule</title>
<path fill="none" stroke="#000000" d="M535,-122.1289C535,-142.5724 535,-173 535,-173 535,-173 1637.442,-173 1637.442,-173"/>
<polygon fill="#000000" stroke="#000000" points="1637.4421,-176.5001 1647.442,-173 1637.442,-169.5001 1637.4421,-176.5001"/>
</g>
<!-- AdminComponent  -->
<g id="node22" class="node">
<title>AdminComponent </title>
<polygon fill="#fb8072" stroke="#000000" points="1758.7205,-252 1635.2795,-252 1635.2795,-216 1758.7205,-216 1758.7205,-252"/>
<text text-anchor="middle" x="1697" y="-229.8" font-family="Times,serif" font-size="14.00" fill="#000000">AdminComponent </text>
</g>
<!-- AdminModule&#45;&gt;AdminComponent  -->
<g id="edge21" class="edge">
<title>AdminModule&#45;&gt;AdminComponent </title>
<path fill="none" stroke="#000000" stroke-dasharray="5,2" d="M1697,-187.1061C1697,-187.1061 1697,-205.991 1697,-205.991"/>
<polygon fill="#000000" stroke="#000000" points="1693.5001,-205.9909 1697,-215.991 1700.5001,-205.991 1693.5001,-205.9909"/>
</g>
<!-- AdminRoutingModule -->
<g id="node19" class="node">
<title>AdminRoutingModule</title>
<polygon fill="#8dd3c7" stroke="#000000" points="451.5561,-122 448.5561,-126 427.5561,-126 424.5561,-122 308.4439,-122 308.4439,-86 451.5561,-86 451.5561,-122"/>
<text text-anchor="middle" x="380" y="-99.8" font-family="Times,serif" font-size="14.00" fill="#000000">AdminRoutingModule</text>
</g>
<!-- AdminRoutingModule&#45;&gt;AdminModule -->
<g id="edge18" class="edge">
<title>AdminRoutingModule&#45;&gt;AdminModule</title>
<path fill="none" stroke="#000000" d="M380,-122.0449C380,-143.6623 380,-177 380,-177 380,-177 1637.7757,-177 1637.7757,-177"/>
<polygon fill="#000000" stroke="#000000" points="1637.7757,-180.5001 1647.7757,-177 1637.7757,-173.5001 1637.7757,-180.5001"/>
</g>
<!-- ModalModule -->
<g id="node20" class="node">
<title>ModalModule</title>
<polygon fill="#8dd3c7" stroke="#000000" points="290.0997,-122 287.0997,-126 266.0997,-126 263.0997,-122 193.9003,-122 193.9003,-86 290.0997,-86 290.0997,-122"/>
<text text-anchor="middle" x="242" y="-99.8" font-family="Times,serif" font-size="14.00" fill="#000000">ModalModule</text>
</g>
<!-- ModalModule&#45;&gt;AdminModule -->
<g id="edge19" class="edge">
<title>ModalModule&#45;&gt;AdminModule</title>
<path fill="none" stroke="#000000" d="M242,-122.0109C242,-144.4852 242,-180 242,-180 242,-180 1637.7558,-180 1637.7558,-180"/>
<polygon fill="#000000" stroke="#000000" points="1637.7559,-183.5001 1647.7558,-180 1637.7558,-176.5001 1637.7559,-183.5001"/>
</g>
<!-- UtilNgxMaterialModule -->
<g id="node21" class="node">
<title>UtilNgxMaterialModule</title>
<polygon fill="#8dd3c7" stroke="#000000" points="176.3557,-122 173.3557,-126 152.3557,-126 149.3557,-122 23.6443,-122 23.6443,-86 176.3557,-86 176.3557,-122"/>
<text text-anchor="middle" x="100" y="-99.8" font-family="Times,serif" font-size="14.00" fill="#000000">UtilNgxMaterialModule</text>
</g>
<!-- UtilNgxMaterialModule&#45;&gt;AdminModule -->
<g id="edge20" class="edge">
<title>UtilNgxMaterialModule&#45;&gt;AdminModule</title>
<path fill="none" stroke="#000000" d="M100,-122.1532C100,-145.7566 100,-184 100,-184 100,-184 1637.4538,-184 1637.4538,-184"/>
<polygon fill="#000000" stroke="#000000" points="1637.4538,-187.5001 1647.4538,-184 1637.4537,-180.5001 1637.4538,-187.5001"/>
</g>
</g>
</svg>
