<?xml version="1.0" encoding="UTF-8" standalone="no"?>
<!DOCTYPE svg PUBLIC "-//W3C//DTD SVG 1.1//EN"
 "http://www.w3.org/Graphics/SVG/1.1/DTD/svg11.dtd">
<!-- Generated by graphviz version 2.40.1 (20161225.0304)
 -->
<!-- Title: dependencies Pages: 1 -->
<svg width="6878pt" height="284pt"
 viewBox="0.00 0.00 6878.00 284.00" xmlns="http://www.w3.org/2000/svg" xmlns:xlink="http://www.w3.org/1999/xlink">
<g id="graph0" class="graph" transform="scale(1 1) rotate(0) translate(4 280)">
<title>dependencies</title>
<polygon fill="#ffffff" stroke="transparent" points="-4,4 -4,-280 6874,-280 6874,4 -4,4"/>
<text text-anchor="start" x="3414.0091" y="-42.4" font-family="sans-serif" font-weight="bold" font-size="14.00" fill="#000000">Legend</text>
<polygon fill="#ffffb3" stroke="transparent" points="3201,-10 3201,-30 3221,-30 3221,-10 3201,-10"/>
<text text-anchor="start" x="3224.629" y="-15.4" font-family="sans-serif" font-size="14.00" fill="#000000"> &#160;Declarations</text>
<polygon fill="#8dd3c7" stroke="transparent" points="3314,-10 3314,-30 3334,-30 3334,-10 3314,-10"/>
<text text-anchor="start" x="3337.7251" y="-15.4" font-family="sans-serif" font-size="14.00" fill="#000000"> &#160;Module</text>
<polygon fill="#80b1d3" stroke="transparent" points="3400,-10 3400,-30 3420,-30 3420,-10 3400,-10"/>
<text text-anchor="start" x="3423.7812" y="-15.4" font-family="sans-serif" font-size="14.00" fill="#000000"> &#160;Bootstrap</text>
<polygon fill="#fdb462" stroke="transparent" points="3497,-10 3497,-30 3517,-30 3517,-10 3497,-10"/>
<text text-anchor="start" x="3520.6732" y="-15.4" font-family="sans-serif" font-size="14.00" fill="#000000"> &#160;Providers</text>
<polygon fill="#fb8072" stroke="transparent" points="3593,-10 3593,-30 3613,-30 3613,-10 3593,-10"/>
<text text-anchor="start" x="3616.7258" y="-15.4" font-family="sans-serif" font-size="14.00" fill="#000000"> &#160;Exports</text>
<g id="clust1" class="cluster">
<title>cluster_AppModule</title>
<polygon fill="none" stroke="#000000" stroke-dasharray="1,5" points="8,-70 8,-268 6862,-268 6862,-70 8,-70"/>
</g>
<g id="clust2" class="cluster">
<title>cluster_AppModule_declarations</title>
<polygon fill="none" stroke="#000000" points="805,-78 805,-130 6854,-130 6854,-78 805,-78"/>
</g>
<g id="clust36" class="cluster">
<title>cluster_AppModule_imports</title>
<polygon fill="none" stroke="#000000" points="204,-78 204,-130 797,-130 797,-78 204,-78"/>
</g>
<g id="clust38" class="cluster">
<title>cluster_AppModule_bootstrap</title>
<polygon fill="none" stroke="#000000" points="3369,-208 3369,-260 3493,-260 3493,-208 3369,-208"/>
</g>
<g id="clust39" class="cluster">
<title>cluster_AppModule_providers</title>
<polygon fill="none" stroke="#000000" points="16,-78 16,-130 196,-130 196,-78 16,-78"/>
</g>
<!-- AppComponent -->
<g id="node1" class="node">
<title>AppComponent</title>
<polygon fill="#ffffb3" stroke="#000000" points="6845.9399,-122 6740.0601,-122 6740.0601,-86 6845.9399,-86 6845.9399,-122"/>
<text text-anchor="middle" x="6793" y="-99.8" font-family="Times,serif" font-size="14.00" fill="#000000">AppComponent</text>
</g>
<!-- AppModule -->
<g id="node34" class="node">
<title>AppModule</title>
<polygon fill="#8dd3c7" stroke="#000000" points="3472.6571,-187 3469.6571,-191 3448.6571,-191 3445.6571,-187 3389.3429,-187 3389.3429,-151 3472.6571,-151 3472.6571,-187"/>
<text text-anchor="middle" x="3431" y="-164.8" font-family="Times,serif" font-size="14.00" fill="#000000">AppModule</text>
</g>
<!-- AppComponent&#45;&gt;AppModule -->
<g id="edge1" class="edge">
<title>AppComponent&#45;&gt;AppModule</title>
<path fill="none" stroke="#000000" d="M6793,-122.1985C6793,-146.3563 6793,-186 6793,-186 6793,-186 3482.8995,-186 3482.8995,-186"/>
<polygon fill="#000000" stroke="#000000" points="3482.8996,-182.5001 3472.8995,-186 3482.8995,-189.5001 3482.8996,-182.5001"/>
</g>
<!-- CertificadoComponent -->
<g id="node2" class="node">
<title>CertificadoComponent</title>
<polygon fill="#ffffb3" stroke="#000000" points="6722.3061,-122 6577.6939,-122 6577.6939,-86 6722.3061,-86 6722.3061,-122"/>
<text text-anchor="middle" x="6650" y="-99.8" font-family="Times,serif" font-size="14.00" fill="#000000">CertificadoComponent</text>
</g>
<!-- CertificadoComponent&#45;&gt;AppModule -->
<g id="edge2" class="edge">
<title>CertificadoComponent&#45;&gt;AppModule</title>
<path fill="none" stroke="#000000" d="M6650,-122.1532C6650,-145.7566 6650,-184 6650,-184 6650,-184 3482.8774,-184 3482.8774,-184"/>
<polygon fill="#000000" stroke="#000000" points="3482.8774,-180.5001 3472.8774,-184 3482.8773,-187.5001 3482.8774,-180.5001"/>
</g>
<!-- EsqueciSenhaComponent -->
<g id="node3" class="node">
<title>EsqueciSenhaComponent</title>
<polygon fill="#ffffb3" stroke="#000000" points="6559.8613,-122 6400.1387,-122 6400.1387,-86 6559.8613,-86 6559.8613,-122"/>
<text text-anchor="middle" x="6480" y="-99.8" font-family="Times,serif" font-size="14.00" fill="#000000">EsqueciSenhaComponent</text>
</g>
<!-- EsqueciSenhaComponent&#45;&gt;AppModule -->
<g id="edge3" class="edge">
<title>EsqueciSenhaComponent&#45;&gt;AppModule</title>
<path fill="none" stroke="#000000" d="M6480,-122.0908C6480,-145.1328 6480,-182 6480,-182 6480,-182 3482.9413,-182 3482.9413,-182"/>
<polygon fill="#000000" stroke="#000000" points="3482.9413,-178.5001 3472.9413,-182 3482.9413,-185.5001 3482.9413,-178.5001"/>
</g>
<!-- FooterComponent -->
<g id="node4" class="node">
<title>FooterComponent</title>
<polygon fill="#ffffb3" stroke="#000000" points="6381.8809,-122 6264.1191,-122 6264.1191,-86 6381.8809,-86 6381.8809,-122"/>
<text text-anchor="middle" x="6323" y="-99.8" font-family="Times,serif" font-size="14.00" fill="#000000">FooterComponent</text>
</g>
<!-- FooterComponent&#45;&gt;AppModule -->
<g id="edge4" class="edge">
<title>FooterComponent&#45;&gt;AppModule</title>
<path fill="none" stroke="#000000" d="M6323,-122.0109C6323,-144.4852 6323,-180 6323,-180 6323,-180 3482.717,-180 3482.717,-180"/>
<polygon fill="#000000" stroke="#000000" points="3482.717,-176.5001 3472.717,-180 3482.717,-183.5001 3482.717,-176.5001"/>
</g>
<!-- HeaderComponent -->
<g id="node5" class="node">
<title>HeaderComponent</title>
<polygon fill="#ffffb3" stroke="#000000" points="6245.7437,-122 6124.2563,-122 6124.2563,-86 6245.7437,-86 6245.7437,-122"/>
<text text-anchor="middle" x="6185" y="-99.8" font-family="Times,serif" font-size="14.00" fill="#000000">HeaderComponent</text>
</g>
<!-- HeaderComponent&#45;&gt;AppModule -->
<g id="edge5" class="edge">
<title>HeaderComponent&#45;&gt;AppModule</title>
<path fill="none" stroke="#000000" d="M6185,-122.2921C6185,-144.2057 6185,-178 6185,-178 6185,-178 3482.8833,-178 3482.8833,-178"/>
<polygon fill="#000000" stroke="#000000" points="3482.8833,-174.5001 3472.8833,-178 3482.8833,-181.5001 3482.8833,-174.5001"/>
</g>
<!-- HomeComponent -->
<g id="node6" class="node">
<title>HomeComponent</title>
<polygon fill="#ffffb3" stroke="#000000" points="6105.5451,-122 5990.4549,-122 5990.4549,-86 6105.5451,-86 6105.5451,-122"/>
<text text-anchor="middle" x="6048" y="-99.8" font-family="Times,serif" font-size="14.00" fill="#000000">HomeComponent</text>
</g>
<!-- HomeComponent&#45;&gt;AppModule -->
<g id="edge6" class="edge">
<title>HomeComponent&#45;&gt;AppModule</title>
<path fill="none" stroke="#000000" d="M6048,-122.1686C6048,-143.498 6048,-176 6048,-176 6048,-176 3482.9006,-176 3482.9006,-176"/>
<polygon fill="#000000" stroke="#000000" points="3482.9006,-172.5001 3472.9006,-176 3482.9006,-179.5001 3482.9006,-172.5001"/>
</g>
<!-- ListarTrabalhosComponent -->
<g id="node7" class="node">
<title>ListarTrabalhosComponent</title>
<polygon fill="#ffffb3" stroke="#000000" points="5971.9636,-122 5802.0364,-122 5802.0364,-86 5971.9636,-86 5971.9636,-122"/>
<text text-anchor="middle" x="5887" y="-99.8" font-family="Times,serif" font-size="14.00" fill="#000000">ListarTrabalhosComponent</text>
</g>
<!-- ListarTrabalhosComponent&#45;&gt;AppModule -->
<g id="edge7" class="edge">
<title>ListarTrabalhosComponent&#45;&gt;AppModule</title>
<path fill="none" stroke="#000000" d="M5887,-122.0267C5887,-142.7672 5887,-174 5887,-174 5887,-174 3482.8545,-174 3482.8545,-174"/>
<polygon fill="#000000" stroke="#000000" points="3482.8545,-170.5001 3472.8545,-174 3482.8545,-177.5001 3482.8545,-170.5001"/>
</g>
<!-- LoginComponent -->
<g id="node8" class="node">
<title>LoginComponent</title>
<polygon fill="#ffffb3" stroke="#000000" points="5784.2758,-122 5669.7242,-122 5669.7242,-86 5784.2758,-86 5784.2758,-122"/>
<text text-anchor="middle" x="5727" y="-99.8" font-family="Times,serif" font-size="14.00" fill="#000000">LoginComponent</text>
</g>
<!-- LoginComponent&#45;&gt;AppModule -->
<g id="edge8" class="edge">
<title>LoginComponent&#45;&gt;AppModule</title>
<path fill="none" stroke="#000000" d="M5727,-122.2228C5727,-142.3652 5727,-172 5727,-172 5727,-172 3482.8113,-172 3482.8113,-172"/>
<polygon fill="#000000" stroke="#000000" points="3482.8114,-168.5001 3472.8113,-172 3482.8113,-175.5001 3482.8114,-168.5001"/>
</g>
<!-- ModalAberturaComponent -->
<g id="node9" class="node">
<title>ModalAberturaComponent</title>
<polygon fill="#ffffb3" stroke="#000000" points="5651.6302,-122 5484.3698,-122 5484.3698,-86 5651.6302,-86 5651.6302,-122"/>
<text text-anchor="middle" x="5568" y="-99.8" font-family="Times,serif" font-size="14.00" fill="#000000">ModalAberturaComponent</text>
</g>
<!-- ModalAberturaComponent&#45;&gt;AppModule -->
<g id="edge9" class="edge">
<title>ModalAberturaComponent&#45;&gt;AppModule</title>
<path fill="none" stroke="#000000" d="M5568,-122.0348C5568,-141.5762 5568,-170 5568,-170 5568,-170 3482.7292,-170 3482.7292,-170"/>
<polygon fill="#000000" stroke="#000000" points="3482.7292,-166.5001 3472.7292,-170 3482.7292,-173.5001 3482.7292,-166.5001"/>
</g>
<!-- ModalAlimentacaoComponent -->
<g id="node10" class="node">
<title>ModalAlimentacaoComponent</title>
<polygon fill="#ffffb3" stroke="#000000" points="5465.91,-122 5276.09,-122 5276.09,-86 5465.91,-86 5465.91,-122"/>
<text text-anchor="middle" x="5371" y="-99.8" font-family="Times,serif" font-size="14.00" fill="#000000">ModalAlimentacaoComponent</text>
</g>
<!-- ModalAlimentacaoComponent&#45;&gt;AppModule -->
<g id="edge10" class="edge">
<title>ModalAlimentacaoComponent&#45;&gt;AppModule</title>
<path fill="none" stroke="#000000" d="M5371,-122.1061C5371,-141.3391 5371,-169 5371,-169 5371,-169 3482.8694,-169 3482.8694,-169"/>
<polygon fill="#000000" stroke="#000000" points="3482.8694,-165.5001 3472.8694,-169 3482.8693,-172.5001 3482.8694,-165.5001"/>
</g>
<!-- ModalApoiadoresComponent -->
<g id="node11" class="node">
<title>ModalApoiadoresComponent</title>
<polygon fill="#ffffb3" stroke="#000000" points="5258.4143,-122 5075.5857,-122 5075.5857,-86 5258.4143,-86 5258.4143,-122"/>
<text text-anchor="middle" x="5167" y="-99.8" font-family="Times,serif" font-size="14.00" fill="#000000">ModalApoiadoresComponent</text>
</g>
<!-- ModalApoiadoresComponent&#45;&gt;AppModule -->
<g id="edge11" class="edge">
<title>ModalApoiadoresComponent&#45;&gt;AppModule</title>
<path fill="none" stroke="#000000" d="M5167,-122.2222C5167,-140.8285 5167,-167 5167,-167 5167,-167 3483.0524,-167 3483.0524,-167"/>
<polygon fill="#000000" stroke="#000000" points="3483.0525,-163.5001 3473.0524,-167 3483.0524,-170.5001 3483.0525,-163.5001"/>
</g>
<!-- ModalCadastroSucessoComponent -->
<g id="node12" class="node">
<title>ModalCadastroSucessoComponent</title>
<polygon fill="#ffffb3" stroke="#000000" points="5057.245,-122 4844.755,-122 4844.755,-86 5057.245,-86 5057.245,-122"/>
<text text-anchor="middle" x="4951" y="-99.8" font-family="Times,serif" font-size="14.00" fill="#000000">ModalCadastroSucessoComponent</text>
</g>
<!-- ModalCadastroSucessoComponent&#45;&gt;AppModule -->
<g id="edge12" class="edge">
<title>ModalCadastroSucessoComponent&#45;&gt;AppModule</title>
<path fill="none" stroke="#000000" d="M4951,-122.302C4951,-140.2699 4951,-165 4951,-165 4951,-165 3482.8414,-165 3482.8414,-165"/>
<polygon fill="#000000" stroke="#000000" points="3482.8414,-161.5001 3472.8414,-165 3482.8414,-168.5001 3482.8414,-161.5001"/>
</g>
<!-- ModalConferencistasComponent -->
<g id="node13" class="node">
<title>ModalConferencistasComponent</title>
<polygon fill="#ffffb3" stroke="#000000" points="4826.5688,-122 4625.4312,-122 4625.4312,-86 4826.5688,-86 4826.5688,-122"/>
<text text-anchor="middle" x="4726" y="-99.8" font-family="Times,serif" font-size="14.00" fill="#000000">ModalConferencistasComponent</text>
</g>
<!-- ModalConferencistasComponent&#45;&gt;AppModule -->
<g id="edge13" class="edge">
<title>ModalConferencistasComponent&#45;&gt;AppModule</title>
<path fill="none" stroke="#000000" d="M4726,-122.0225C4726,-139.3734 4726,-163 4726,-163 4726,-163 3482.9848,-163 3482.9848,-163"/>
<polygon fill="#000000" stroke="#000000" points="3482.9848,-159.5001 3472.9848,-163 3482.9847,-166.5001 3482.9848,-159.5001"/>
</g>
<!-- ModalEixoComponent -->
<g id="node14" class="node">
<title>ModalEixoComponent</title>
<polygon fill="#ffffb3" stroke="#000000" points="4607.3258,-122 4462.6742,-122 4462.6742,-86 4607.3258,-86 4607.3258,-122"/>
<text text-anchor="middle" x="4535" y="-99.8" font-family="Times,serif" font-size="14.00" fill="#000000">ModalEixoComponent</text>
</g>
<!-- ModalEixoComponent&#45;&gt;AppModule -->
<g id="edge14" class="edge">
<title>ModalEixoComponent&#45;&gt;AppModule</title>
<path fill="none" stroke="#000000" d="M4535,-122.0352C4535,-138.7344 4535,-161 4535,-161 4535,-161 3482.93,-161 3482.93,-161"/>
<polygon fill="#000000" stroke="#000000" points="3482.93,-157.5001 3472.93,-161 3482.93,-164.5001 3482.93,-157.5001"/>
</g>
<!-- ModalEncerramentoComponent -->
<g id="node15" class="node">
<title>ModalEncerramentoComponent</title>
<polygon fill="#ffffb3" stroke="#000000" points="4445.396,-122 4248.604,-122 4248.604,-86 4445.396,-86 4445.396,-122"/>
<text text-anchor="middle" x="4347" y="-99.8" font-family="Times,serif" font-size="14.00" fill="#000000">ModalEncerramentoComponent</text>
</g>
<!-- ModalEncerramentoComponent&#45;&gt;AppModule -->
<g id="edge15" class="edge">
<title>ModalEncerramentoComponent&#45;&gt;AppModule</title>
<path fill="none" stroke="#000000" d="M4347,-122.0091C4347,-138.0494 4347,-159 4347,-159 4347,-159 3482.7389,-159 3482.7389,-159"/>
<polygon fill="#000000" stroke="#000000" points="3482.7389,-155.5001 3472.7389,-159 3482.7388,-162.5001 3482.7389,-155.5001"/>
</g>
<!-- ModalHospedagemComponent -->
<g id="node16" class="node">
<title>ModalHospedagemComponent</title>
<polygon fill="#ffffb3" stroke="#000000" points="4230.4678,-122 4039.5322,-122 4039.5322,-86 4230.4678,-86 4230.4678,-122"/>
<text text-anchor="middle" x="4135" y="-99.8" font-family="Times,serif" font-size="14.00" fill="#000000">ModalHospedagemComponent</text>
</g>
<!-- ModalHospedagemComponent&#45;&gt;AppModule -->
<g id="edge16" class="edge">
<title>ModalHospedagemComponent&#45;&gt;AppModule</title>
<path fill="none" stroke="#000000" d="M4135,-122.2396C4135,-137.5706 4135,-157 4135,-157 4135,-157 3482.6698,-157 3482.6698,-157"/>
<polygon fill="#000000" stroke="#000000" points="3482.6698,-153.5001 3472.6698,-157 3482.6697,-160.5001 3482.6698,-153.5001"/>
</g>
<!-- ModalInscricaoComponent -->
<g id="node17" class="node">
<title>ModalInscricaoComponent</title>
<polygon fill="#ffffb3" stroke="#000000" points="4021.6825,-122 3852.3175,-122 3852.3175,-86 4021.6825,-86 4021.6825,-122"/>
<text text-anchor="middle" x="3937" y="-99.8" font-family="Times,serif" font-size="14.00" fill="#000000">ModalInscricaoComponent</text>
</g>
<!-- ModalInscricaoComponent&#45;&gt;AppModule -->
<g id="edge17" class="edge">
<title>ModalInscricaoComponent&#45;&gt;AppModule</title>
<path fill="none" stroke="#000000" d="M3937,-122.1243C3937,-136.7832 3937,-155 3937,-155 3937,-155 3482.8386,-155 3482.8386,-155"/>
<polygon fill="#000000" stroke="#000000" points="3482.8386,-151.5001 3472.8386,-155 3482.8386,-158.5001 3482.8386,-151.5001"/>
</g>
<!-- ModalNormasComponent -->
<g id="node18" class="node">
<title>ModalNormasComponent</title>
<polygon fill="#ffffb3" stroke="#000000" points="3834.1993,-122 3671.8007,-122 3671.8007,-86 3834.1993,-86 3834.1993,-122"/>
<text text-anchor="middle" x="3753" y="-99.8" font-family="Times,serif" font-size="14.00" fill="#000000">ModalNormasComponent</text>
</g>
<!-- ModalNormasComponent&#45;&gt;AppModule -->
<g id="edge18" class="edge">
<title>ModalNormasComponent&#45;&gt;AppModule</title>
<path fill="none" stroke="#000000" d="M3753,-122.2458C3753,-136.1772 3753,-153 3753,-153 3753,-153 3482.7658,-153 3482.7658,-153"/>
<polygon fill="#000000" stroke="#000000" points="3482.7658,-149.5001 3472.7658,-153 3482.7657,-156.5001 3482.7658,-149.5001"/>
</g>
<!-- ModalNormasMinicursoComponent -->
<g id="node19" class="node">
<title>ModalNormasMinicursoComponent</title>
<polygon fill="#ffffb3" stroke="#000000" points="3653.7449,-122 3434.2551,-122 3434.2551,-86 3653.7449,-86 3653.7449,-122"/>
<text text-anchor="middle" x="3544" y="-99.8" font-family="Times,serif" font-size="14.00" fill="#000000">ModalNormasMinicursoComponent</text>
</g>
<!-- ModalNormasMinicursoComponent&#45;&gt;AppModule -->
<g id="edge19" class="edge">
<title>ModalNormasMinicursoComponent&#45;&gt;AppModule</title>
<path fill="none" stroke="#000000" d="M3453.4779,-122.1061C3453.4779,-122.1061 3453.4779,-140.991 3453.4779,-140.991"/>
<polygon fill="#000000" stroke="#000000" points="3449.978,-140.9909 3453.4779,-150.991 3456.978,-140.991 3449.978,-140.9909"/>
</g>
<!-- ModalNormasPainelComponent -->
<g id="node20" class="node">
<title>ModalNormasPainelComponent</title>
<polygon fill="#ffffb3" stroke="#000000" points="3416.6923,-122 3219.3077,-122 3219.3077,-86 3416.6923,-86 3416.6923,-122"/>
<text text-anchor="middle" x="3318" y="-99.8" font-family="Times,serif" font-size="14.00" fill="#000000">ModalNormasPainelComponent</text>
</g>
<!-- ModalNormasPainelComponent&#45;&gt;AppModule -->
<g id="edge20" class="edge">
<title>ModalNormasPainelComponent&#45;&gt;AppModule</title>
<path fill="none" stroke="#000000" d="M3402.884,-122.1061C3402.884,-122.1061 3402.884,-140.991 3402.884,-140.991"/>
<polygon fill="#000000" stroke="#000000" points="3399.384,-140.9909 3402.884,-150.991 3406.384,-140.991 3399.384,-140.9909"/>
</g>
<!-- ModalNormasPosterComponent -->
<g id="node21" class="node">
<title>ModalNormasPosterComponent</title>
<polygon fill="#ffffb3" stroke="#000000" points="3201.6923,-122 3004.3077,-122 3004.3077,-86 3201.6923,-86 3201.6923,-122"/>
<text text-anchor="middle" x="3103" y="-99.8" font-family="Times,serif" font-size="14.00" fill="#000000">ModalNormasPosterComponent</text>
</g>
<!-- ModalNormasPosterComponent&#45;&gt;AppModule -->
<g id="edge21" class="edge">
<title>ModalNormasPosterComponent&#45;&gt;AppModule</title>
<path fill="none" stroke="#000000" d="M3103,-122.2458C3103,-136.1772 3103,-153 3103,-153 3103,-153 3379.1254,-153 3379.1254,-153"/>
<polygon fill="#000000" stroke="#000000" points="3379.1254,-156.5001 3389.1254,-153 3379.1254,-149.5001 3379.1254,-156.5001"/>
</g>
<!-- ModalNormasRodaConversaComponent -->
<g id="node22" class="node">
<title>ModalNormasRodaConversaComponent</title>
<polygon fill="#ffffb3" stroke="#000000" points="2986.1217,-122 2741.8783,-122 2741.8783,-86 2986.1217,-86 2986.1217,-122"/>
<text text-anchor="middle" x="2864" y="-99.8" font-family="Times,serif" font-size="14.00" fill="#000000">ModalNormasRodaConversaComponent</text>
</g>
<!-- ModalNormasRodaConversaComponent&#45;&gt;AppModule -->
<g id="edge22" class="edge">
<title>ModalNormasRodaConversaComponent&#45;&gt;AppModule</title>
<path fill="none" stroke="#000000" d="M2864,-122.1243C2864,-136.7832 2864,-155 2864,-155 2864,-155 3379.3071,-155 3379.3071,-155"/>
<polygon fill="#000000" stroke="#000000" points="3379.3072,-158.5001 3389.3071,-155 3379.3071,-151.5001 3379.3072,-158.5001"/>
</g>
<!-- ModalProgramacaoComponent -->
<g id="node23" class="node">
<title>ModalProgramacaoComponent</title>
<polygon fill="#ffffb3" stroke="#000000" points="2723.7352,-122 2532.2648,-122 2532.2648,-86 2723.7352,-86 2723.7352,-122"/>
<text text-anchor="middle" x="2628" y="-99.8" font-family="Times,serif" font-size="14.00" fill="#000000">ModalProgramacaoComponent</text>
</g>
<!-- ModalProgramacaoComponent&#45;&gt;AppModule -->
<g id="edge23" class="edge">
<title>ModalProgramacaoComponent&#45;&gt;AppModule</title>
<path fill="none" stroke="#000000" d="M2628,-122.2396C2628,-137.5706 2628,-157 2628,-157 2628,-157 3379.2384,-157 3379.2384,-157"/>
<polygon fill="#000000" stroke="#000000" points="3379.2384,-160.5001 3389.2384,-157 3379.2384,-153.5001 3379.2384,-160.5001"/>
</g>
<!-- ModalSessoesEspeciaisComponent -->
<g id="node24" class="node">
<title>ModalSessoesEspeciaisComponent</title>
<polygon fill="#ffffb3" stroke="#000000" points="2514.2948,-122 2299.7052,-122 2299.7052,-86 2514.2948,-86 2514.2948,-122"/>
<text text-anchor="middle" x="2407" y="-99.8" font-family="Times,serif" font-size="14.00" fill="#000000">ModalSessoesEspeciaisComponent</text>
</g>
<!-- ModalSessoesEspeciaisComponent&#45;&gt;AppModule -->
<g id="edge24" class="edge">
<title>ModalSessoesEspeciaisComponent&#45;&gt;AppModule</title>
<path fill="none" stroke="#000000" d="M2407,-122.0091C2407,-138.0494 2407,-159 2407,-159 2407,-159 3379.2699,-159 3379.2699,-159"/>
<polygon fill="#000000" stroke="#000000" points="3379.2699,-162.5001 3389.2699,-159 3379.2698,-155.5001 3379.2699,-162.5001"/>
</g>
<!-- ModalSimposioComponent -->
<g id="node25" class="node">
<title>ModalSimposioComponent</title>
<polygon fill="#ffffb3" stroke="#000000" points="2281.2813,-122 2110.7187,-122 2110.7187,-86 2281.2813,-86 2281.2813,-122"/>
<text text-anchor="middle" x="2196" y="-99.8" font-family="Times,serif" font-size="14.00" fill="#000000">ModalSimposioComponent</text>
</g>
<!-- ModalSimposioComponent&#45;&gt;AppModule -->
<g id="edge25" class="edge">
<title>ModalSimposioComponent&#45;&gt;AppModule</title>
<path fill="none" stroke="#000000" d="M2196,-122.0352C2196,-138.7344 2196,-161 2196,-161 2196,-161 3379.2017,-161 3379.2017,-161"/>
<polygon fill="#000000" stroke="#000000" points="3379.2017,-164.5001 3389.2017,-161 3379.2016,-157.5001 3379.2017,-164.5001"/>
</g>
<!-- ModalTransporteComponent -->
<g id="node26" class="node">
<title>ModalTransporteComponent</title>
<polygon fill="#ffffb3" stroke="#000000" points="2092.021,-122 1913.979,-122 1913.979,-86 2092.021,-86 2092.021,-122"/>
<text text-anchor="middle" x="2003" y="-99.8" font-family="Times,serif" font-size="14.00" fill="#000000">ModalTransporteComponent</text>
</g>
<!-- ModalTransporteComponent&#45;&gt;AppModule -->
<g id="edge26" class="edge">
<title>ModalTransporteComponent&#45;&gt;AppModule</title>
<path fill="none" stroke="#000000" d="M2003,-122.0225C2003,-139.3734 2003,-163 2003,-163 2003,-163 3379.036,-163 3379.036,-163"/>
<polygon fill="#000000" stroke="#000000" points="3379.0361,-166.5001 3389.036,-163 3379.036,-159.5001 3379.0361,-166.5001"/>
</g>
<!-- ModalTurismoComponent -->
<g id="node27" class="node">
<title>ModalTurismoComponent</title>
<polygon fill="#ffffb3" stroke="#000000" points="1895.8215,-122 1730.1785,-122 1730.1785,-86 1895.8215,-86 1895.8215,-122"/>
<text text-anchor="middle" x="1813" y="-99.8" font-family="Times,serif" font-size="14.00" fill="#000000">ModalTurismoComponent</text>
</g>
<!-- ModalTurismoComponent&#45;&gt;AppModule -->
<g id="edge27" class="edge">
<title>ModalTurismoComponent&#45;&gt;AppModule</title>
<path fill="none" stroke="#000000" d="M1813,-122.302C1813,-140.2699 1813,-165 1813,-165 1813,-165 3378.9671,-165 3378.9671,-165"/>
<polygon fill="#000000" stroke="#000000" points="3378.9672,-168.5001 3388.9671,-165 3378.9671,-161.5001 3378.9672,-168.5001"/>
</g>
<!-- PagamentoComponent -->
<g id="node28" class="node">
<title>PagamentoComponent</title>
<polygon fill="#ffffb3" stroke="#000000" points="1712.5407,-122 1569.4593,-122 1569.4593,-86 1712.5407,-86 1712.5407,-122"/>
<text text-anchor="middle" x="1641" y="-99.8" font-family="Times,serif" font-size="14.00" fill="#000000">PagamentoComponent</text>
</g>
<!-- PagamentoComponent&#45;&gt;AppModule -->
<g id="edge28" class="edge">
<title>PagamentoComponent&#45;&gt;AppModule</title>
<path fill="none" stroke="#000000" d="M1641,-122.2222C1641,-140.8285 1641,-167 1641,-167 1641,-167 3378.9542,-167 3378.9542,-167"/>
<polygon fill="#000000" stroke="#000000" points="3378.9543,-170.5001 3388.9542,-167 3378.9542,-163.5001 3378.9543,-170.5001"/>
</g>
<!-- PerfilComponent -->
<g id="node29" class="node">
<title>PerfilComponent</title>
<polygon fill="#ffffb3" stroke="#000000" points="1551.4328,-122 1438.5672,-122 1438.5672,-86 1551.4328,-86 1551.4328,-122"/>
<text text-anchor="middle" x="1495" y="-99.8" font-family="Times,serif" font-size="14.00" fill="#000000">PerfilComponent</text>
</g>
<!-- PerfilComponent&#45;&gt;AppModule -->
<g id="edge29" class="edge">
<title>PerfilComponent&#45;&gt;AppModule</title>
<path fill="none" stroke="#000000" d="M1495,-122.1061C1495,-141.3391 1495,-169 1495,-169 1495,-169 3379.217,-169 3379.217,-169"/>
<polygon fill="#000000" stroke="#000000" points="3379.217,-172.5001 3389.217,-169 3379.2169,-165.5001 3379.217,-172.5001"/>
</g>
<!-- RegisterComponent -->
<g id="node30" class="node">
<title>RegisterComponent</title>
<polygon fill="#ffffb3" stroke="#000000" points="1420.9846,-122 1293.0154,-122 1293.0154,-86 1420.9846,-86 1420.9846,-122"/>
<text text-anchor="middle" x="1357" y="-99.8" font-family="Times,serif" font-size="14.00" fill="#000000">RegisterComponent</text>
</g>
<!-- RegisterComponent&#45;&gt;AppModule -->
<g id="edge30" class="edge">
<title>RegisterComponent&#45;&gt;AppModule</title>
<path fill="none" stroke="#000000" d="M1357,-122.0348C1357,-141.5762 1357,-170 1357,-170 1357,-170 3379.1024,-170 3379.1024,-170"/>
<polygon fill="#000000" stroke="#000000" points="3379.1024,-173.5001 3389.1024,-170 3379.1023,-166.5001 3379.1024,-173.5001"/>
</g>
<!-- ResetSenhaComponent -->
<g id="node31" class="node">
<title>ResetSenhaComponent</title>
<polygon fill="#ffffb3" stroke="#000000" points="1275.1456,-122 1128.8544,-122 1128.8544,-86 1275.1456,-86 1275.1456,-122"/>
<text text-anchor="middle" x="1202" y="-99.8" font-family="Times,serif" font-size="14.00" fill="#000000">ResetSenhaComponent</text>
</g>
<!-- ResetSenhaComponent&#45;&gt;AppModule -->
<g id="edge31" class="edge">
<title>ResetSenhaComponent&#45;&gt;AppModule</title>
<path fill="none" stroke="#000000" d="M1202,-122.2228C1202,-142.3652 1202,-172 1202,-172 1202,-172 3378.9536,-172 3378.9536,-172"/>
<polygon fill="#000000" stroke="#000000" points="3378.9536,-175.5001 3388.9536,-172 3378.9535,-168.5001 3378.9536,-175.5001"/>
</g>
<!-- SubmissaoComponent -->
<g id="node32" class="node">
<title>SubmissaoComponent</title>
<polygon fill="#ffffb3" stroke="#000000" points="1111,-122 969,-122 969,-86 1111,-86 1111,-122"/>
<text text-anchor="middle" x="1040" y="-99.8" font-family="Times,serif" font-size="14.00" fill="#000000">SubmissaoComponent</text>
</g>
<!-- SubmissaoComponent&#45;&gt;AppModule -->
<g id="edge32" class="edge">
<title>SubmissaoComponent&#45;&gt;AppModule</title>
<path fill="none" stroke="#000000" d="M1040,-122.0267C1040,-142.7672 1040,-174 1040,-174 1040,-174 3379.2471,-174 3379.2471,-174"/>
<polygon fill="#000000" stroke="#000000" points="3379.2471,-177.5001 3389.2471,-174 3379.2471,-170.5001 3379.2471,-177.5001"/>
</g>
<!-- TrabalhosComponent -->
<g id="node33" class="node">
<title>TrabalhosComponent</title>
<polygon fill="#ffffb3" stroke="#000000" points="950.8104,-122 813.1896,-122 813.1896,-86 950.8104,-86 950.8104,-122"/>
<text text-anchor="middle" x="882" y="-99.8" font-family="Times,serif" font-size="14.00" fill="#000000">TrabalhosComponent</text>
</g>
<!-- TrabalhosComponent&#45;&gt;AppModule -->
<g id="edge33" class="edge">
<title>TrabalhosComponent&#45;&gt;AppModule</title>
<path fill="none" stroke="#000000" d="M882,-122.1686C882,-143.498 882,-176 882,-176 882,-176 3379.1464,-176 3379.1464,-176"/>
<polygon fill="#000000" stroke="#000000" points="3379.1464,-179.5001 3389.1464,-176 3379.1464,-172.5001 3379.1464,-179.5001"/>
</g>
<!-- AppComponent  -->
<g id="node39" class="node">
<title>AppComponent </title>
<polygon fill="#80b1d3" stroke="#000000" points="3485.439,-252 3376.561,-252 3376.561,-216 3485.439,-216 3485.439,-252"/>
<text text-anchor="middle" x="3431" y="-229.8" font-family="Times,serif" font-size="14.00" fill="#000000">AppComponent </text>
</g>
<!-- AppModule&#45;&gt;AppComponent  -->
<g id="edge38" class="edge">
<title>AppModule&#45;&gt;AppComponent </title>
<path fill="none" stroke="#000000" stroke-dasharray="1,5" d="M3431,-187.1061C3431,-187.1061 3431,-205.991 3431,-205.991"/>
<polygon fill="#000000" stroke="#000000" points="3427.5001,-205.9909 3431,-215.991 3434.5001,-205.991 3427.5001,-205.9909"/>
</g>
<!-- AdminModule -->
<g id="node35" class="node">
<title>AdminModule</title>
<polygon fill="#8dd3c7" stroke="#000000" points="789.4386,-122 786.4386,-126 765.4386,-126 762.4386,-122 690.5614,-122 690.5614,-86 789.4386,-86 789.4386,-122"/>
<text text-anchor="middle" x="740" y="-99.8" font-family="Times,serif" font-size="14.00" fill="#000000">AdminModule</text>
</g>
<!-- AdminModule&#45;&gt;AppModule -->
<g id="edge34" class="edge">
<title>AdminModule&#45;&gt;AppModule</title>
<path fill="none" stroke="#000000" d="M740,-122.2921C740,-144.2057 740,-178 740,-178 740,-178 3379.2709,-178 3379.2709,-178"/>
<polygon fill="#000000" stroke="#000000" points="3379.2709,-181.5001 3389.2709,-178 3379.2708,-174.5001 3379.2709,-181.5001"/>
</g>
<!-- AdminRoutingModule -->
<g id="node36" class="node">
<title>AdminRoutingModule</title>
<polygon fill="#8dd3c7" stroke="#000000" points="672.5561,-122 669.5561,-126 648.5561,-126 645.5561,-122 529.4439,-122 529.4439,-86 672.5561,-86 672.5561,-122"/>
<text text-anchor="middle" x="601" y="-99.8" font-family="Times,serif" font-size="14.00" fill="#000000">AdminRoutingModule</text>
</g>
<!-- AdminRoutingModule&#45;&gt;AppModule -->
<g id="edge35" class="edge">
<title>AdminRoutingModule&#45;&gt;AppModule</title>
<path fill="none" stroke="#000000" d="M601,-122.0109C601,-144.4852 601,-180 601,-180 601,-180 3379.076,-180 3379.076,-180"/>
<polygon fill="#000000" stroke="#000000" points="3379.0761,-183.5001 3389.076,-180 3379.076,-176.5001 3379.0761,-183.5001"/>
</g>
<!-- AppRoutingModule -->
<g id="node37" class="node">
<title>AppRoutingModule</title>
<polygon fill="#8dd3c7" stroke="#000000" points="511.2744,-122 508.2744,-126 487.2744,-126 484.2744,-122 382.7256,-122 382.7256,-86 511.2744,-86 511.2744,-122"/>
<text text-anchor="middle" x="447" y="-99.8" font-family="Times,serif" font-size="14.00" fill="#000000">AppRoutingModule</text>
</g>
<!-- AppRoutingModule&#45;&gt;AppModule -->
<g id="edge36" class="edge">
<title>AppRoutingModule&#45;&gt;AppModule</title>
<path fill="none" stroke="#000000" d="M447,-122.0908C447,-145.1328 447,-182 447,-182 447,-182 3379.1025,-182 3379.1025,-182"/>
<polygon fill="#000000" stroke="#000000" points="3379.1025,-185.5001 3389.1025,-182 3379.1025,-178.5001 3379.1025,-185.5001"/>
</g>
<!-- UtilNgxMaterialModule -->
<g id="node38" class="node">
<title>UtilNgxMaterialModule</title>
<polygon fill="#8dd3c7" stroke="#000000" points="364.3557,-122 361.3557,-126 340.3557,-126 337.3557,-122 211.6443,-122 211.6443,-86 364.3557,-86 364.3557,-122"/>
<text text-anchor="middle" x="288" y="-99.8" font-family="Times,serif" font-size="14.00" fill="#000000">UtilNgxMaterialModule</text>
</g>
<!-- UtilNgxMaterialModule&#45;&gt;AppModule -->
<g id="edge37" class="edge">
<title>UtilNgxMaterialModule&#45;&gt;AppModule</title>
<path fill="none" stroke="#000000" d="M288,-122.1532C288,-145.7566 288,-184 288,-184 288,-184 3379.239,-184 3379.239,-184"/>
<polygon fill="#000000" stroke="#000000" points="3379.239,-187.5001 3389.239,-184 3379.239,-180.5001 3379.239,-187.5001"/>
</g>
<!-- InterceptorService -->
<g id="node40" class="node">
<title>InterceptorService</title>
<ellipse fill="#fdb462" stroke="#000000" cx="106" cy="-104" rx="82.1986" ry="18"/>
<text text-anchor="middle" x="106" y="-99.8" font-family="Times,serif" font-size="14.00" fill="#000000">InterceptorService</text>
</g>
<!-- InterceptorService&#45;&gt;AppModule -->
<g id="edge39" class="edge">
<title>InterceptorService&#45;&gt;AppModule</title>
<path fill="none" stroke="#000000" d="M106,-122.1985C106,-146.3563 106,-186 106,-186 106,-186 3379.2612,-186 3379.2612,-186"/>
<polygon fill="#000000" stroke="#000000" points="3379.2612,-189.5001 3389.2612,-186 3379.2611,-182.5001 3379.2612,-189.5001"/>
</g>
</g>
</svg>
